PLOT

Garden gnomes Gnomeo (voice of McAvoy) and Juliet (voice of Blunt) have as many obstacles to overcome as their quasi namesakes when they are caught up in a feud between neighbors. But with plastic pink flamingos and lawnmower races in the mix, can this young couple find lasting happiness?

CAST

James McAvoy	 ...	Gnomeo (voice)
Emily Blunt	 ...	Juliet (voice)
Ashley Jensen	 ...	Nanette (voice)
Michael Caine	 ...	Lord Redbrick (voice)
Matt Lucas	 ...	Benny (voice)
Jim Cummings	 ...	Featherstone (voice)
Maggie Smith	 ...	Lady Bluebury (voice)
Jason Statham	 ...	Tybalt (voice)

INFO

Format                           : AVI
Format/Info                      : Audio Video Interleave
File size                        : 750 MiB
Duration                         : 1h 14mn
Overall bit rate                 : 1 409 Kbps
Writing application              : VirtualDubMod 1.5.4.1 (build 2178/release)
Writing library                  : VirtualDubMod build 2178/release

Video
ID                               : 0
Format                           : MPEG-4 Visual
Format profile                   : Advanced Simple@L5
Format settings, BVOP            : 1
Format settings, QPel            : No
Format settings, GMC             : No warppoints
Format settings, Matrix          : Custom
Codec ID                         : XVID
Codec ID/Hint                    : XviD
Duration                         : 1h 14mn
Bit rate                         : 1 274 Kbps
Width                            : 672 pixels
Height                           : 384 pixels
Display aspect ratio             : 16:9
Frame rate                       : 25.000 fps
Color space                      : YUV
Chroma subsampling               : 4:2:0
Bit depth                        : 8 bits
Scan type                        : Progressive
Compression mode                 : Lossy
Bits/(Pixel*Frame)               : 0.197
Stream size                      : 678 MiB (90%)
Writing library                  : XviD 1.2.1 (UTC 2008-12-04)

Audio
ID                               : 1
Format                           : MPEG Audio
Format version                   : Version 1
Format profile                   : Layer 3
Mode                             : Joint stereo
Mode extension                   : MS Stereo
Codec ID                         : 55
Codec ID/Hint                    : MP3
Duration                         : 1h 14mn
Bit rate mode                    : Constant
Bit rate                         : 128 Kbps
Channel(s)                       : 2 channels
Sampling rate                    : 44.1 KHz
Compression mode                 : Lossy
Stream size                      : 68.1 MiB (9%)
Alignment                        : Split accross interleaves
Interleave, duration             : 80 ms (2.00 video frames)
Interleave, preload duration     : 500 ms

SOURCE-IMAGINE

NOTES

I Ran This Through A Few Filters Lowered The brightness/contrast A Little. Adjusted the saturation levels. Other Than That A Great TeleSync

If you want to join our team or have anything you can offer please visit: 

SCREENS 
http://img249.imageshack.us/img249/6292/vlcsnap2011022010h13m34.png 
http://img262.imageshack.us/img262/8403/vlcsnap2011022010h44m34.png 
http://img28.imageshack.us/img28/7315/vlcsnap2011022010h44m38.png